<svg xmlns="http://www.w3.org/2000/svg" viewBox="0 0 24 24" width="32" height="32"><linearGradient id="g" x1="0" x2="1" y1="0" y2="1"><stop offset="0" stop-color="#f58529"/><stop offset="0.5" stop-color="#dd2a7b"/><stop offset="1" stop-color="#515bd4"/></linearGradient><path fill="url(#g)" d="M12 7.2A4.8 4.8 0 1012 16.8 4.8 4.8 0 0012 7.2zm0 7.92A3.12 3.12 0 1112 8.88a3.12 3.12 0 010 6.24z"/><path fill="url(#g)" d="M17.5 6.5a1.1 1.1 0 11-2.2 0 1.1 1.1 0 012.2 0z"/><path fill="none" stroke="url(#g)" stroke-width="1.6" d="M3 7.5C3 5.5 3.5 4 5 3h14c1.5 1 2 2.5 2 4.5v9c0 2-0.5 3.5-2 4.5H5c-1.5-1-2-2.5-2-4.5v-9z"/></svg>