<svg width="30" height="30" viewBox="0 0 30 30" xmlns="http://www.w3.org/2000/svg">
  <circle cx="15" cy="15" r="14" fill="white"/>
  <path d="M15 3C8.373 3 3 8.373 3 15c0 2.099.541 4.073 1.491 5.79L3 27l6.36-1.467A11.942 11.942 0 0015 27c6.627 0 12-5.373 12-12S21.627 3 15 3zm6.063 16.437c-.263.742-1.552 1.403-2.124 1.487-.571.084-1.104.257-3.729-.799-3.364-1.354-5.518-4.764-5.685-4.983-.167-.22-1.371-1.826-1.371-3.484 0-1.658.865-2.471 1.172-2.807.307-.336.671-.42.894-.42.223 0 .447 0 .642.013.207.012.484-.079.757.578.278.671.952 2.329.952 2.497 0 .168-.084.391-.224.615-.14.224-.223.364-.391.587-.168.223-.364.475-.52.64-.168.167-.343.349-.147.685.196.336.872 1.439 1.871 2.331 1.287 1.148 2.371 1.505 2.707 1.673.336.168.532.14.728-.084.196-.224.839-1.006 1.064-1.35.224-.344.448-.287.756-.168.307.12 1.952.92 2.287 1.088.336.168.559.252.643.392.084.14.084.811-.179 1.553z" fill="#25D366"/>
</svg>